<svg xmlns="http://www.w3.org/2000/svg" width="40" height="40" viewBox="0 0 40 40">
    <g transform="translate(-4 43.9)">
        <path d="M36.5-42.1a4.2,4.2,0,0,1-2.6,2.6c-2.4.8-2.4,2.2,0,3a4.2,4.2,0,0,1,2.6,2.6c.8,2.4,2.2,2.4,3,0a4.2,4.2,0,0,1,2.6-2.6c1-.4,1.9-1,1.9-1.5s-.9-1.1-1.9-1.5a4.2,4.2,0,0,1-2.6-2.6C38.7-44.5,37.3-44.5,36.5-42.1Z"
              fill="#757575"/>
        <path d="M15.5-33.384c-1.5,4.115-2.4,5.018-6.6,6.724C6.2-25.455,4-24.251,4-23.85c0,.3,2.1,1.4,4.6,2.409,4.1,1.505,5,2.409,6.7,6.624C16.5-12.108,17.7-9.9,18-9.9s1.5-2.208,2.7-4.918c1.7-4.215,2.6-5.118,6.7-6.624,2.5-1,4.6-2.108,4.6-2.409,0-.4-2.2-1.606-4.9-2.81-4.2-1.706-5.1-2.609-6.6-6.724C19.5-35.893,18.4-38,18-38S16.5-35.893,15.5-33.384Z"
              fill="#757575"/>
        <path d="M36.5-14.1a4.2,4.2,0,0,1-2.6,2.6c-2.4.8-2.4,2.2,0,3a4.2,4.2,0,0,1,2.6,2.6c.4,1,1,1.9,1.5,1.9s1.1-.9,1.5-1.9a4.2,4.2,0,0,1,2.6-2.6c1-.4,1.9-1,1.9-1.5s-.9-1.1-1.9-1.5a4.2,4.2,0,0,1-2.6-2.6C38.7-16.5,37.3-16.5,36.5-14.1Z"
              transform="translate(0 0.1)" fill="#757575"/>
    </g>
</svg>
