<?xml version="1.0" standalone="no"?>
<!DOCTYPE svg PUBLIC "-//W3C//DTD SVG 20010904//EN"
 "http://www.w3.org/TR/2001/REC-SVG-20010904/DTD/svg10.dtd">
<svg version="1.0" xmlns="http://www.w3.org/2000/svg"
 width="192.000000pt" height="192.000000pt" viewBox="0 0 192.000000 192.000000"
 preserveAspectRatio="xMidYMid meet">
<metadata>
Created by potrace 1.11, written by Peter Selinger 2001-2013
</metadata>
<g transform="translate(0.000000,192.000000) scale(0.100000,-0.100000)"
fill="#000000" stroke="none">
<path d="M515 1486 c-37 -17 -70 -52 -84 -89 -7 -18 -11 -138 -11 -320 0 -258
2 -296 17 -317 33 -48 305 -330 340 -351 34 -22 40 -22 323 -17 259 5 292 7
321 24 66 39 72 58 81 237 5 89 7 290 6 447 -3 264 -4 287 -23 319 -11 19 -33
43 -48 55 -28 20 -39 21 -460 23 -345 2 -438 0 -462 -11z m332 -307 c15 -5 76
-58 136 -117 89 -89 107 -112 107 -137 0 -36 -8 -48 -37 -64 -18 -9 -29 -9
-50 3 -43 22 -186 175 -179 192 3 7 9 14 13 14 5 0 46 -38 93 -85 47 -47 93
-85 102 -85 39 0 14 40 -86 138 -107 106 -131 118 -168 85 -40 -36 -26 -62
115 -201 124 -122 136 -132 171 -132 52 0 96 44 96 96 0 34 -10 47 -117 156
-111 112 -116 119 -100 136 17 16 23 11 131 -98 89 -89 116 -124 125 -156 28
-105 -68 -202 -171 -174 -49 14 -303 263 -312 308 -10 45 16 100 56 117 40 17
40 17 75 4z m-127 -397 c53 -26 64 -59 68 -204 2 -71 0 -128 -5 -128 -4 0 -87
79 -183 175 l-175 175 130 0 c104 0 137 -4 165 -18z"/>
<path d="M294 198 c18 -12 1319 -9 1336 3 10 7 -195 9 -666 7 -375 -2 -677 -6
-670 -10z"/>
</g>
</svg>
